Coordinates
version=1
nRows=29
nColumns=24
inDegrees=yes

Units are S.I. units (second, meters, Newtons, ...)
Angles are in degrees.

endheader
time	pelvis_tilt	pelvis_list	pelvis_rotation	pelvis_tx	pelvis_ty	pelvis_tz	hip_flexion_r	hip_adduction_r	hip_rotation_r	knee_angle_r	ankle_angle_r	subtalar_angle_r	mtp_angle_r	hip_flexion_l	hip_adduction_l	hip_rotation_l	knee_angle_l	ankle_angle_l	subtalar_angle_l	mtp_angle_l	lumbar_extension	lumbar_bending	lumbar_rotation
      0.74150000	      1.86026515	     -4.46238433	     -3.32085801	     -0.47908463	      1.01514755	      0.33242326	      9.85294063	      7.33394087	     -2.46796761	    -15.66690489	     -2.19496402	    -11.77667758	     -3.98608521	     17.77615551	    -11.15740479	    -10.48515475	    -75.58215822	     -1.09630461	    -16.73700541	      9.45738953	    -13.89425620	      6.23208249	      7.67193789
      0.74566667	      1.89855197	     -4.35785104	     -3.39507353	     -0.47369094	      1.01616467	      0.33277765	      9.32964333	      7.24709923	     -2.30187205	    -15.38235223	     -2.07677271	    -11.79150436	     -3.97867468	     18.41430981	    -11.06057749	    -10.50838254	    -75.49783048	     -0.79244788	    -16.79840341	      9.45738953	    -13.92774160	      6.09173852	      7.72915512
      0.74983333	      2.03274448	     -4.26064321	     -3.51071782	     -0.46833041	      1.01732251	      0.33328285	      8.69468497	      7.17647991	     -2.08157520	    -15.07901067	     -2.00136084	    -11.83606822	     -3.94267267	     18.90144578	    -10.99948316	    -10.59754533	    -75.32105192	     -0.37656442	    -16.61097579	      9.45738953	    -14.10296561	      5.90439643	      8.07911271
      0.75400000	      2.08969314	     -4.15102859	     -3.59836939	     -0.46296712	      1.01832987	      0.33363602	      8.14892991	      7.07848816	     -1.91438411	    -14.78295201	     -1.93301728	    -11.87081243	     -3.92743538	     19.47370870	    -10.89608991	    -10.66652363	    -75.07816459	     -0.04313392	    -16.67723979	      9.45738953	    -14.17694806	      5.74979895	      8.19013375
      0.75816667	      2.28381994	     -4.04497900	     -3.72910689	     -0.45750899	      1.01961936	      0.33415520	      7.40803150	      6.98948316	     -1.67014636	    -14.40538660	     -1.86651020	    -11.90400052	     -3.88335728	     19.82268523	    -10.82670884	    -10.82164543	    -74.69639838	      0.23443681	    -16.58850902	      9.45738953	    -14.39095620	      5.54699282	      8.52651771
      0.76233333	      2.28570259	     -3.97437610	     -3.78892362	     -0.45204809	      1.02049551	      0.33447269	      6.88977635	      6.92705999	     -1.54576991	    -14.05969273	     -1.76741641	    -11.89520410	     -3.87697359	     20.41974230	    -10.76346007	    -10.87898936	    -74.30878731	      0.47748992	    -16.66822953	      9.45738953	    -14.37358753	      5.44016337	      8.56333519
      0.76650000	      2.53956705	     -3.83678648	     -3.89627745	     -0.44657206	      1.02187902	      0.33488005	      6.06379881	      6.78126469	     -1.34490323	    -13.63016300	     -1.76714650	    -11.92577894	     -3.83999233	     20.65066956	    -10.63170870	    -11.05266999	    -73.74502834	      0.73498665	    -16.62720335	      9.45738953	    -14.66208445	      5.20310709	      8.87505989
      0.77066667	      2.71194828	     -3.73368004	     -3.99459470	     -0.44108005	      1.02306192	      0.33527280	      5.32302711	      6.67342181	     -1.16007086	    -13.20187090	     -1.74509273	    -11.93968158	     -3.80574319	     20.96505299	    -10.53911849	    -11.21750695	    -73.14131639	      0.95245556	    -16.71802382	      9.45738953	    -14.84971766	      5.01752713	      9.03368483
      0.77483333	      2.87401454	     -3.70550087	     -4.19288987	     -0.43561923	      1.02414855	      0.33601722	      4.57244142	      6.68127800	     -0.79299281	    -12.74063210	     -1.76230517	    -12.10428101	     -3.27397055	     21.24598957	    -10.60861962	    -11.49194330	    -72.50138205	      1.21570994	    -16.73463415	     -8.28783366	    -15.04218400	      4.88007783	      9.40100318
      0.77900000	      3.02606741	     -3.54632487	     -4.16333903	     -0.43001715	      1.02528972	      0.33599356	      3.83740304	      6.46518180	     -0.83427623	    -12.27686354	     -1.70449282	    -11.95064322	     -3.28292611	     21.55806761	    -10.36165925	    -11.54849430	    -71.72110417	      1.30971461	    -16.89937633	     -8.32362994	    -15.17451229	      4.66695662	      9.37931042
      0.78316667	      3.24886593	     -3.46928182	     -4.20535397	     -0.42443310	      1.02647795	      0.33624589	      2.98717102	      6.36293643	     -0.71574089	    -11.73954246	     -1.74767640	    -11.95801312	     -3.29617741	     21.74470968	    -10.26383770	    -11.69631872	    -70.89775575	      1.48844116	    -17.00322990	     -8.37329269	    -15.40509776	      4.53075212	      9.47658231
      0.78733333	      3.46956555	     -3.37184024	     -4.27644755	     -0.41884705	      1.02763119	      0.33655276	      2.13872943	      6.23821916	     -0.56727579	    -11.20082819	     -1.76981251	    -11.94694801	     -3.31268619	     21.89480756	    -10.15289523	    -11.89229395	    -69.99180136	      1.62992416	    -17.13689903	     -8.42610816	    -15.63541589	      4.35145896	      9.60123764
      0.79150000	      3.69904853	     -3.28901634	     -4.35693554	     -0.41322026	      1.02876348	      0.33688989	      1.26727087	      6.12724183	     -0.41282139	    -10.64187663	     -1.79352091	    -11.95099308	     -3.33774923	     21.99942922	    -10.06563757	    -12.11586762	    -69.01811960	      1.78996877	    -17.26937771	     -8.48521645	    -15.86652867	      4.18977140	      9.73618439
      0.79566667	      3.92133783	     -3.21071632	     -4.42478204	     -0.40761008	      1.02982471	      0.33718787	      0.39685970	      6.01886452	     -0.25340354	    -10.06555775	     -1.83079209	    -11.95871982	     -3.36937474	     22.09503639	     -9.97184345	    -12.32923393	    -67.98690114	      1.93858639	    -17.39795956	     -8.54306997	    -16.10022119	      4.03510894	      9.86124139
      0.79983333	      4.14076913	     -3.11852143	     -4.49220621	     -0.40194599	      1.03085313	      0.33749976	     -0.47995706	      5.89277818	     -0.11035327	     -9.47137539	     -1.88684129	    -11.99437917	     -3.40604462	     22.15666907	     -9.86314845	    -12.56424726	    -66.87324594	      2.04576478	    -17.51880408	     -8.59527696	    -16.31026444	      3.85951286	      9.97443145
      0.80400000	      4.39022932	     -3.03580933	     -4.59687945	     -0.39628135	      1.03187901	      0.33787395	     -1.39085911	      5.77077258	      0.06590418	     -8.87567928	     -1.93828346	    -11.98251243	     -3.45647170	     22.14235465	     -9.77959352	    -12.85762082	    -65.69518500	      2.19377785	    -17.66196080	     -8.65499364	    -16.56033372	      3.68803697	     10.10372452
      0.80816667	      4.60518302	     -2.95822941	     -4.64708248	     -0.39058891	      1.03277183	      0.33816561	     -2.27412888	      5.65759190	      0.19012069	     -8.26212797	     -2.00489612	    -12.06443288	     -3.50674060	     22.16126793	     -9.67987249	    -13.09937825	    -64.46454522	      2.26610289	    -17.76184162	     -8.70393011	    -16.75427655	      3.52082756	     10.21414398
      0.81233333	      4.48639266	     -2.54446045	     -4.81570974	     -0.38489768	      1.03252139	      0.33875621	     -2.79016544	      5.23298633	      0.46981045	     -7.63089125	     -1.90728109	    -12.17029893	     -3.54309932	     22.52936555	     -9.28930572	    -13.52508507	    -63.22076954	      2.33976157	    -17.95883104	     -8.74850723	    -16.54438837	      2.99312721	     10.19520595
      0.81650000	      4.70251483	     -2.40927277	     -4.97812802	     -0.37930233	      1.03329091	      0.33916649	     -3.55484178	      5.04103272	      0.64391535	     -7.25192166	     -1.82324734	    -12.10983970	     -3.60720820	     22.45757502	     -9.15676813	    -13.91133136	    -61.83858003	      2.42394529	    -18.05888157	     -8.81354300	    -16.76363048	      2.73530358	     10.42490505
      0.82066667	      4.83806264	     -2.32350383	     -5.11580580	     -0.37374045	      1.03382790	      0.33951655	     -4.22402993	      4.90897546	      0.81494205	     -6.89453548	     -1.72828260	    -12.09131711	     -3.68298844	     22.47762596	     -9.06961602	    -14.25281606	    -60.44006000	      2.49081261	    -18.16284856	     -8.88014738	    -16.89191343	      2.56455581	     10.57810721
      0.82483333	      4.94540889	     -2.24320176	     -5.25292912	     -0.36815716	      1.03425773	      0.33985067	     -4.85200761	      4.78041590	      0.96576296	     -6.56132271	     -1.61593565	    -12.05528754	     -3.76862959	     22.50185479	     -8.98726234	    -14.60359388	    -58.98477903	      2.53917521	    -18.24582695	     -8.94933018	    -16.98548366	      2.39752229	     10.73288776
      0.82900000	      5.03844770	     -2.17844816	     -5.38229647	     -0.36257207	      1.03460111	      0.34015966	     -5.46039233	      4.66818172	      1.10905578	     -6.23823271	     -1.50720600	    -12.03661142	     -3.86267148	     22.51949102	     -8.91420010	    -14.94994862	    -57.47734036	      2.57350068	    -18.30940385	     -9.02022385	    -17.06476025	      2.24897401	     10.88339223
      0.83316667	      5.11623488	     -2.12701664	     -5.51396123	     -0.35699426	      1.03485592	      0.34045492	     -6.04255268	      4.56783217	      1.25037201	     -5.93480550	     -1.38929724	    -12.00808894	     -3.96520802	     22.52761098	     -8.85314240	    -15.30435907	    -55.91480654	      2.60117554	    -18.34360518	     -9.09246635	    -17.12720263	      2.11802457	     11.03351314
      0.83733333	      5.17427640	     -2.08627090	     -5.64002252	     -0.35141537	      1.03501049	      0.34072562	     -6.59490532	      4.47880337	      1.38414678	     -5.64907376	     -1.26459303	    -11.98772690	     -4.07085824	     22.53368042	     -8.79730448	    -15.65890237	    -54.29920192	      2.61970947	    -18.35158261	     -9.16282854	    -17.16973553	      2.00346647	     11.17504315
      0.84150000	      5.21854079	     -2.06271053	     -5.75976778	     -0.34583762	      1.03507670	      0.34096434	     -7.12559006	      4.40652607	      1.50282518	     -5.37842992	     -1.13803765	    -11.96654829	     -4.18182999	     22.53167831	     -8.75270502	    -16.01196809	    -52.63291928	      2.62955665	    -18.32233910	     -9.23267063	    -17.20041160	      1.91308587	     11.31332245
      0.84566667	      5.20524392	     -2.06369132	     -5.85887435	     -0.34025752	      1.03497488	      0.34113108	     -7.58436430	      4.36583734	      1.60751323	     -5.13212314	     -1.01199842	    -11.95733361	     -4.28019389	     22.57920242	     -8.72102672	    -16.33294461	    -50.93024631	      2.64854940	    -18.25585590	     -9.29054788	    -17.15870772	      1.86158252	     11.43001540
      0.84983333	      5.17086303	     -2.07661221	     -5.95973168	     -0.33467486	      1.03478351	      0.34127952	     -8.01326971	      4.33685531	      1.70455278	     -4.90124146	     -0.87017941	    -11.93330687	     -4.38216337	     22.62238309	     -8.69792253	    -16.66226613	    -49.17399413	      2.64606661	    -18.14917489	     -9.34648824	    -17.11032288	      1.83382001	     11.55359370
      0.85400000	      5.14991243	     -2.12016414	     -6.04161427	     -0.32913196	      1.03453171	      0.34138053	     -8.44871602	      4.33909087	      1.77794020	     -4.68791992	     -0.73542690	    -11.90890224	     -4.50048924	     22.63507854	     -8.69445360	    -16.97593412	    -47.37436805	      2.61741272	    -17.97193828	     -9.40349301	    -17.08293514	      1.84211802	     11.68046135
      0.85816667	      5.07313608	     -2.17712207	     -6.08991938	     -0.32355177	      1.03410833	      0.34135432	     -8.82214022	      4.36051554	      1.81873883	     -4.48624161	     -0.58735511	    -11.89214238	     -4.58334500	     22.69638289	     -8.67665665	    -17.23861808	    -45.54344009	      2.64369262	    -17.79157102	     -9.43807078	    -16.98444132	      1.88303028	     11.74802212
